<?xml version="1.0" encoding="UTF-8" standalone="no"?>
<svg
   xmlns:dc="http://purl.org/dc/elements/1.1/"
   xmlns:cc="http://creativecommons.org/ns#"
   xmlns:rdf="http://www.w3.org/1999/02/22-rdf-syntax-ns#"
   xmlns:svg="http://www.w3.org/2000/svg"
   xmlns="http://www.w3.org/2000/svg"
   xmlns:sodipodi="http://sodipodi.sourceforge.net/DTD/sodipodi-0.dtd"
   xmlns:inkscape="http://www.inkscape.org/namespaces/inkscape"
   width="19.475687mm"
   height="20.856745mm"
   viewBox="0 0 19.475687 20.856745"
   version="1.1"
   id="svg8"
   inkscape:version="1.0.2 (e86c870879, 2021-01-15)"
   sodipodi:docname="devin-logo.svg">
  <defs
     id="defs2" />
  <sodipodi:namedview
     id="base"
     pagecolor="#ffffff"
     bordercolor="#666666"
     borderopacity="1.0"
     inkscape:pageopacity="0.0"
     inkscape:pageshadow="2"
     inkscape:zoom="1.1316689"
     inkscape:cx="16.209772"
     inkscape:cy="-28.751289"
     inkscape:document-units="mm"
     inkscape:current-layer="layer1"
     inkscape:document-rotation="0"
     showgrid="false"
     inkscape:snap-bbox="true"
     showguides="true"
     inkscape:guide-bbox="true"
     inkscape:bbox-paths="false"
     inkscape:bbox-nodes="true"
     inkscape:snap-bbox-edge-midpoints="false"
     inkscape:snap-bbox-midpoints="false"
     inkscape:snap-intersection-paths="true"
     inkscape:snap-global="false"
     inkscape:window-width="1410"
     inkscape:window-height="908"
     inkscape:window-x="0"
     inkscape:window-y="0"
     inkscape:window-maximized="1"
     fit-margin-top="0"
     fit-margin-left="0"
     fit-margin-right="0"
     fit-margin-bottom="0" />
  <metadata
     id="metadata5">
    <rdf:RDF>
      <cc:Work
         rdf:about="">
        <dc:format>image/svg+xml</dc:format>
        <dc:type
           rdf:resource="http://purl.org/dc/dcmitype/StillImage" />
        <dc:title></dc:title>
      </cc:Work>
    </rdf:RDF>
  </metadata>
  <g
     inkscape:label="Layer 1"
     inkscape:groupmode="layer"
     id="layer1"
     transform="translate(-83.483178,-87.774004)">
    <path
       id="text850"
       style="font-style:normal;font-variant:normal;font-weight:600;font-stretch:normal;font-size:28.3482px;line-height:1.25;font-family:Rubik;-inkscape-font-specification:'Rubik Semi-Bold';letter-spacing:0px;word-spacing:0px;fill:#357fd9;fill-opacity:1;stroke:#357fd9;stroke-width:3.77953;stroke-miterlimit:4;stroke-dasharray:none;stroke-opacity:1"
       d="m 327.35352,333.63477 c -0.27964,0 -0.5339,0.0441 -0.77735,0.10742 1.68666,0.27754 3.24719,1.09301 4.41016,2.29687 a 7.5947172,7.5947172 0 0 1 0.0215,0.0195 l 10.92578,11.39649 h 11.77735 c 5.42857,0 9.42857,1.28599 12,3.85742 2.64285,2.5 4.03487,6.42802 4.17773,11.78516 0.0714,2 0.10742,3.82198 0.10742,5.46484 0.0714,1.64286 0.0714,3.28488 0,4.92773 0,1.64286 -0.036,3.50084 -0.10742,5.57227 -0.0714,3.71428 -0.67745,6.75028 -1.82031,9.10742 -1.07143,2.28571 -2.74944,3.96373 -5.03516,5.03516 -2.28571,1.07143 -5.21568,1.60742 -8.78711,1.60742 h -12.20117 l -11.02148,11.49805 c -1.17953,1.23724 -2.76507,1.97202 -4.43164,2.2207 0.23883,0.0606 0.48827,0.10156 0.76172,0.10156 h 27.42968 c 7.07143,0 12.96345,-1.03404 17.67774,-3.10547 4.71428,-2.14285 8.28627,-5.39286 10.71484,-9.75 2.42857,-4.35714 3.74861,-9.85714 3.96289,-16.5 0.0714,-3.07142 0.10742,-5.78739 0.10742,-8.14453 0,-2.35714 -0.036,-5.10714 -0.10742,-8.25 -0.14286,-6.35714 -1.49888,-11.67718 -4.07031,-15.96289 -2.5,-4.35714 -6.14398,-7.64314 -10.92969,-9.85742 -4.78571,-2.28571 -10.74972,-3.42773 -17.89258,-3.42773 z m -2.67774,18.67382 v 37.77344 l 17.03516,-17.76367 v -2.24219 z"
       transform="scale(0.26458333)" />
    <path
       style="color:#000000;font-style:normal;font-variant:normal;font-weight:normal;font-stretch:normal;font-size:medium;line-height:normal;font-family:sans-serif;font-variant-ligatures:normal;font-variant-position:normal;font-variant-caps:normal;font-variant-numeric:normal;font-variant-alternates:normal;font-variant-east-asian:normal;font-feature-settings:normal;font-variation-settings:normal;text-indent:0;text-align:start;text-decoration:none;text-decoration-line:none;text-decoration-style:solid;text-decoration-color:#000000;letter-spacing:normal;word-spacing:normal;text-transform:none;writing-mode:lr-tb;direction:ltr;text-orientation:mixed;dominant-baseline:auto;baseline-shift:baseline;text-anchor:start;white-space:normal;shape-padding:0;shape-margin:0;inline-size:0;clip-rule:nonzero;display:inline;overflow:visible;visibility:visible;isolation:auto;mix-blend-mode:normal;color-interpolation:sRGB;color-interpolation-filters:linearRGB;solid-color:#000000;solid-opacity:1;vector-effect:none;fill:#ffffff;fill-opacity:1;fill-rule:nonzero;stroke:#357fd9;stroke-width:1;stroke-linecap:round;stroke-linejoin:round;stroke-miterlimit:4;stroke-dasharray:none;stroke-dashoffset:0;stroke-opacity:1;color-rendering:auto;image-rendering:auto;shape-rendering:auto;text-rendering:auto;enable-background:accumulate;stop-color:#000000"
       d="m 85.964583,88.274554 a 2.0094356,2.0094356 0 0 0 -0.162858,0.01563 c -6.05e-4,7.8e-5 -0.0015,-6.7e-5 -0.002,0 -0.0046,6.03e-4 -0.0092,0.001 -0.01373,0.0022 a 2.0094356,2.0094356 0 0 0 -1.151778,0.582753 c -0.01651,0.01585 -0.04487,0.01496 -0.06083,0.03136 a 2.0094356,2.0094356 0 0 0 -0.0059,0.0056 c -0.0181,0.01875 -0.01016,0.04743 -0.02747,0.06674 a 2.0094356,2.0094356 0 0 0 -0.476801,1.173362 c -0.06637,0.59677 0.05267,1.199187 0.50427,1.66782 l -0.0039,-0.0022 6.131697,6.394638 -6.127773,6.390693 c -0.785914,0.81554 -0.784775,2.08466 -0.002,2.90201 0.78379,0.81632 2.236536,0.81747 3.017776,-0.002 l 7.515009,-7.840708 a 2.0094356,2.0094356 0 0 0 0.02157,-0.0216 c 0.01004,-0.0112 0.01959,-0.0223 0.02943,-0.0334 0.0451,-0.0506 0.08393,-0.10469 0.123616,-0.15893 0.600055,-0.81838 0.542305,-1.928135 -0.160896,-2.674404 a 2.0094356,2.0094356 0 0 0 -0.01178,-0.01373 L 87.57934,88.915733 a 2.0094356,2.0094356 0 0 0 -0.0059,-0.0056 c -0.405727,-0.419994 -0.994115,-0.662664 -1.601109,-0.633769 -6.43e-4,2.3e-5 -0.0013,-3.3e-5 -0.002,0 -0.0022,1.12e-4 -0.0037,-0.0022 -0.0059,-0.0022 z"
       id="path871" />
  </g>
</svg>
